<?xml version="1.0" encoding="UTF-8"?><svg id="Layer_1" xmlns="http://www.w3.org/2000/svg" viewBox="0 0 220 90"><defs><style>.cls-1{fill:#ff0;}</style></defs><path class="cls-1" d="M118.61,64.1h-12.46l-4.93-12.84h-23.39l-4.84,12.84h-11.8L83.26,7.5h12.71l22.65,56.6Zm-20.87-22.17l-7.29-20.01c-.17-.44-.54-1.68-1.12-3.73-.22,.86-.44,1.72-.66,2.59s-.41,1.57-.58,2.09l-6.79,19.06h16.44Z"/><path class="cls-1" d="M153.04,22.17h10.36V59c0,7.6-1.75,13.33-5.24,17.19-3.49,3.87-9.04,5.8-16.63,5.8-4.92,0-9.82-.99-14.71-2.98l.87-9.41c2.24,1.1,4.4,1.96,6.48,2.57,2.09,.61,4.19,.91,6.32,.91,2.38,0,4.6-.51,6.67-1.53,2.07-1.02,3.58-2.51,4.52-4.47,.64-1.33,1.03-2.79,1.18-4.39,.15-1.6,.27-3.94,.35-7-1.38,2.57-3.31,4.61-5.8,6.13-2.49,1.52-5.19,2.28-8.12,2.28-3.78,0-6.95-1.01-9.51-3.02-2.56-2.02-4.42-4.65-5.59-7.91-1.17-3.26-1.76-6.74-1.76-10.44s.6-7.3,1.8-10.54c1.2-3.25,3.09-5.86,5.66-7.85s5.79-2.98,9.65-2.98c3.04,0,5.7,.62,8,1.86,2.29,1.24,4.07,3.14,5.34,5.68l.17-6.71Zm-.41,20.47c0-1.41-.21-2.87-.62-4.39-.41-1.52-1.02-2.85-1.8-4-.79-1.15-1.82-2.09-3.09-2.82-1.27-.73-2.67-1.1-4.18-1.1-3.09,0-5.41,1.22-6.94,3.65-1.53,2.43-2.3,5.29-2.3,8.58s.78,6.19,2.34,8.8c1.56,2.61,3.86,3.92,6.9,3.92,2.15,0,3.95-.62,5.39-1.86,1.44-1.24,2.51-2.84,3.23-4.81,.72-1.96,1.08-3.95,1.08-5.97Z"/></svg>