<?xml version="1.0" encoding="UTF-8"?><svg id="Layer_1" xmlns="http://www.w3.org/2000/svg" viewBox="0 0 530 314"><defs><style>.cls-1{stroke:#fff;stroke-miterlimit:10;stroke-width:2px;}.cls-2{font-family:Helvetica, Helvetica;font-size:11px;}.cls-2,.cls-3{fill:#ff0;}</style></defs><g><path class="cls-3" d="M257.22,215.73h-37.6l-14.87-38.75h-70.57l-14.61,38.75h-35.6L150.54,44.98h38.35l68.33,170.75Zm-62.96-66.88l-21.98-60.38c-.5-1.33-1.62-5.08-3.37-11.25-.67,2.58-1.33,5.19-2,7.81s-1.25,4.73-1.75,6.31l-20.48,57.5h49.59Z"/><path class="cls-3" d="M361.09,89.23h31.25v111.12c0,22.92-5.27,40.21-15.81,51.88-10.54,11.67-27.27,17.5-50.19,17.5-14.83,0-29.62-3-44.38-9l2.62-28.38c6.75,3.33,13.27,5.92,19.56,7.75,6.29,1.83,12.64,2.75,19.06,2.75,7.17,0,13.88-1.54,20.12-4.62,6.25-3.08,10.79-7.58,13.62-13.5,1.92-4,3.1-8.42,3.56-13.25,.46-4.83,.81-11.88,1.06-21.12-4.17,7.75-10,13.92-17.5,18.5-7.5,4.58-15.67,6.88-24.5,6.88-11.42,0-20.98-3.04-28.69-9.12-7.71-6.08-13.33-14.04-16.88-23.88-3.54-9.83-5.31-20.33-5.31-31.5s1.81-22.02,5.44-31.81c3.62-9.79,9.31-17.69,17.06-23.69s17.46-9,29.12-9c9.17,0,17.21,1.88,24.12,5.62,6.92,3.75,12.29,9.46,16.12,17.12l.5-20.25Zm-1.25,61.75c0-4.25-.62-8.67-1.88-13.25-1.25-4.58-3.06-8.6-5.44-12.06-2.38-3.46-5.48-6.29-9.31-8.5-3.83-2.21-8.04-3.31-12.62-3.31-9.33,0-16.31,3.67-20.94,11-4.62,7.33-6.94,15.96-6.94,25.88s2.35,18.69,7.06,26.56c4.71,7.88,11.64,11.81,20.81,11.81,6.5,0,11.92-1.88,16.25-5.62,4.33-3.75,7.58-8.58,9.75-14.5,2.17-5.92,3.25-11.92,3.25-18Z"/></g><line class="cls-1" x1="107" y1="44" x2="516" y2="44"/><path class="cls-1" d="M409,89H53"/><path class="cls-1" d="M424,217H5"/><text class="cls-2" transform="translate(464.56 39.19)"><tspan x="0" y="0">cap height</tspan></text><text class="cls-2" transform="translate(53 84.19)"><tspan x="0" y="0">X-height</tspan></text><text class="cls-2" transform="translate(5 215.19)"><tspan x="0" y="0">Baseline</tspan></text></svg>