<svg width="92" height="28" viewBox="0 0 92 28" fill="none" xmlns="http://www.w3.org/2000/svg">
<path d="M0 -0.000193247L0.000540942 15.4229L11.6106 27.0591H92V11.5767L80.449 -0.000193247H0Z" fill="black"/>
<path d="M6.87252 4.92407C5.90152 4.92407 5.17988 5.29325 5.17988 5.95679C5.17988 6.48752 5.68025 6.87133 6.4165 7.03343L7.87331 7.32834C9.59518 7.68233 11.7735 8.21306 11.7735 10.4552C11.7735 12.6968 9.52153 13.9653 7.29932 13.9653C4.56211 13.9653 2.76616 12.5932 2.38379 10.2925H4.88571C5.16539 11.4142 6.0488 11.9303 7.35842 11.9303C8.21203 11.9303 9.18304 11.6495 9.18304 10.7647C9.18304 10.0713 8.35918 9.7325 7.19667 9.48152L5.90161 9.21588C4.16464 8.84724 2.58997 8.02156 2.58997 6.10417C2.58997 3.92105 4.93014 2.90352 7.01982 2.90352C9.1095 2.90352 11.0964 3.81805 11.4642 6.17787H8.97752C8.72706 5.38151 7.94702 4.92399 6.87274 4.92399" fill="#FFFF00"/>
<path d="M15.4071 11.546H20.5288V13.7729H12.8906V3.08041H15.4071V11.546Z" fill="#FFFF00"/>
<path d="M25.4005 9.82098H28.1523L26.7836 5.7503L25.4005 9.82098ZM25.4151 3.08035H28.1821L32.2148 13.7734H29.477L28.8295 11.8706H24.7086L24.0757 13.7734H21.3975L25.4151 3.08035Z" fill="#FFFF00"/>
<path d="M39.9707 13.7734L35.688 6.39857V13.7734H33.2598V3.08035H36.321L40.6037 10.4552V3.08035H43.032V13.7734H39.9707Z" fill="#FFFF00"/>
<path d="M47.4759 5.29264H44.0615V3.08024H53.4367V5.29264H50.0076V13.7734H47.476L47.4759 5.29264Z" fill="#FFFF00"/>
<path d="M54.5381 3.08073H62.7209V5.29313H57.0546V7.1661H62.4121V9.39364H57.0546V11.5464H62.7209V13.7739H54.5381V3.08073Z" fill="#FFFF00"/>
<path d="M67.6232 5.20484H66.5781V11.65H67.6232C69.4775 11.65 71.1555 11.2516 71.1555 8.42009C71.1555 5.60273 69.4775 5.20484 67.6232 5.20484ZM67.5788 3.08084C71.0674 3.08084 73.8192 4.34941 73.8192 8.42009C73.8192 12.5055 71.0674 13.7739 67.5788 13.7739H64.0615V3.08084H67.5788Z" fill="#FFFF00"/>
</svg>
