<svg width="92" height="28" viewBox="0 0 92 28" fill="none" xmlns="http://www.w3.org/2000/svg">
<path d="M0 0.000508658L0.000540942 15.4236L11.6106 27.0598H92V11.5774L80.449 0.000508658H0Z" fill="#FFFF00"/>
<path d="M6.87252 4.9248C5.90152 4.9248 5.17988 5.29398 5.17988 5.95753C5.17988 6.48825 5.68025 6.87207 6.4165 7.03416L7.87331 7.32907C9.59518 7.68307 11.7735 8.21379 11.7735 10.4559C11.7735 12.6975 9.52153 13.9661 7.29932 13.9661C4.56211 13.9661 2.76616 12.594 2.38379 10.2933H4.88571C5.16539 11.4149 6.0488 11.931 7.35842 11.931C8.21203 11.931 9.18304 11.6502 9.18304 10.7654C9.18304 10.0721 8.35918 9.73323 7.19667 9.48225L5.90161 9.21662C4.16464 8.84798 2.58997 8.02229 2.58997 6.1049C2.58997 3.92178 4.93014 2.90425 7.01982 2.90425C9.1095 2.90425 11.0964 3.81879 11.4642 6.1786H8.97752C8.72706 5.38224 7.94702 4.92473 6.87274 4.92473" fill="black"/>
<path d="M15.4071 11.5468H20.5288V13.7738H12.8906V3.08123H15.4071V11.5468Z" fill="black"/>
<path d="M25.4005 9.82166H28.1523L26.7836 5.75097L25.4005 9.82166ZM25.4151 3.08102H28.1821L32.2148 13.7741H29.477L28.8295 11.8713H24.7086L24.0757 13.7741H21.3975L25.4151 3.08102Z" fill="black"/>
<path d="M39.9707 13.7742L35.688 6.3993V13.7742H33.2598V3.08108H36.321L40.6037 10.4559V3.08108H43.032V13.7742H39.9707Z" fill="black"/>
<path d="M47.4759 5.29331H44.0615V3.08091H53.4367V5.29331H50.0076V13.7741H47.476L47.4759 5.29331Z" fill="black"/>
<path d="M54.5381 3.08124H62.7209V5.29365H57.0546V7.16662H62.4121V9.39416H57.0546V11.5469H62.7209V13.7744H54.5381V3.08124Z" fill="black"/>
<path d="M67.6232 5.20558H66.5781V11.6508H67.6232C69.4775 11.6508 71.1555 11.2523 71.1555 8.42082C71.1555 5.60347 69.4775 5.20558 67.6232 5.20558ZM67.5788 3.08157C71.0674 3.08157 73.8192 4.35014 73.8192 8.42082C73.8192 12.5062 71.0674 13.7747 67.5788 13.7747H64.0615V3.08157H67.5788Z" fill="black"/>
</svg>
